<?xml version="1.0" encoding="UTF-8"?>
<svg width="24px" height="23px" viewBox="0 0 24 23" version="1.1" xmlns="http://www.w3.org/2000/svg"
     xmlns:xlink="http://www.w3.org/1999/xlink">
    <g id="信息采集-涉案视图" transform="translate(-1359.000000, -163.000000)">
        <path d="M1371.8952,163.615994 C1372.27266,163.222688 1372.79668,163 1373.34472,163 C1373.89276,163 1374.41677,163.222688 1374.79423,163.615994 L1382.37771,171.395797 C1382.77503,171.769438 1383,172.288146 1383,172.830638 C1383,173.373129 1382.77503,173.891838 1382.37771,174.265478 L1372.17011,184.361806 C1371.28969,185.27727 1370.06863,185.795434 1368.79174,185.795434 C1367.51485,185.795434 1366.29378,185.27727 1365.41336,184.361806 L1359.62229,178.629372 C1359.22497,178.255731 1359,177.737023 1359,177.194531 C1359,176.65204 1359.22497,176.133331 1359.62229,175.759691 L1371.8952,163.615994 Z M1360.58797,176.71856 C1360.45583,176.843135 1360.38104,177.015876 1360.38104,177.19651 C1360.38104,177.377144 1360.45583,177.549885 1360.58797,177.674461 L1366.37904,183.406895 C1367.00779,184.061068 1367.88006,184.431372 1368.79224,184.431372 C1369.70441,184.431372 1370.57668,184.061068 1371.20543,183.406895 L1381.40903,173.306609 C1381.54117,173.182034 1381.61596,173.009293 1381.61596,172.828659 C1381.61596,172.648024 1381.54117,172.475283 1381.40903,172.350708 L1373.82556,164.570905 C1373.69971,164.440101 1373.5252,164.366069 1373.34272,164.366069 C1373.16024,164.366069 1372.98573,164.440101 1372.85988,164.570905 L1360.58797,176.71856 Z M1363.2081,173.306609 L1364.17278,172.350708 L1373.6876,181.901797 L1372.72293,182.856708 L1363.2081,173.306609 Z M1360.58797,185.999503 C1360.33546,186.009024 1360.0979,185.881103 1359.96878,185.666081 C1359.83967,185.45106 1359.83967,185.183364 1359.96878,184.968343 C1360.0979,184.753321 1360.33546,184.6254 1360.58797,184.634921 L1380.16744,184.634921 C1380.53791,184.648889 1380.83096,184.950232 1380.83096,185.317212 C1380.83096,185.684192 1380.53791,185.985535 1380.16744,185.999503 L1360.58797,185.999503 Z"
              id="路径_1351"></path>
    </g>
</svg>
