<?xml version="1.0" encoding="UTF-8"?>
<svg width="22px" height="22px" viewBox="0 0 22 22" version="1.1" xmlns="http://www.w3.org/2000/svg" xmlns:xlink="http://www.w3.org/1999/xlink">
    <path d="M20.75,0 C21.4403559,-1.26816328e-16 22,0.559644063 22,1.25 L22,20.75 C22,21.4403559 21.4403559,22 20.75,22 L1.25,22 C0.559644063,22 8.45442189e-17,21.4403559 0,20.75 L0,1.25 C-8.45442189e-17,0.559644063 0.559644063,1.26816328e-16 1.25,0 L20.75,0 Z M19.9,1.3 L2.1,1.3 C1.6581722,1.3 1.3,1.6581722 1.3,2.1 L1.3,2.1 L1.3,19.9 C1.3,20.3418278 1.6581722,20.7 2.1,20.7 L2.1,20.7 L19.9,20.7 C20.3418278,20.7 20.7,20.3418278 20.7,19.9 L20.7,19.9 L20.7,2.1 C20.7,1.6581722 20.3418278,1.3 19.9,1.3 L19.9,1.3 Z"></path>
</svg>
