<?xml version="1.0" encoding="UTF-8"?>
<svg width="24px" height="24px" viewBox="0 0 24 24" version="1.1" xmlns="http://www.w3.org/2000/svg"
     xmlns:xlink="http://www.w3.org/1999/xlink">
    <g id="信息采集-涉案视图" transform="translate(-1148.000000, -163.000000)">
        <path d="M1170.93294,173.176124 L1161.82436,164.065242 C1161.14124,163.3827 1160.21503,162.999532 1159.24948,163.000011 L1151.64983,163.000011 C1150.68318,162.997632 1149.75527,163.379848 1149.07062,164.062419 C1148.38597,164.74499 1148.00079,165.671879 1148,166.638774 L1148,174.240344 C1148,175.207176 1148.38436,176.134331 1149.06795,176.817877 L1158.18053,185.93276 C1158.8637,186.616102 1159.79027,187 1160.75641,187 C1161.72256,187 1162.64913,186.616102 1163.33229,185.93276 L1170.93194,178.331189 C1171.61561,177.647774 1172,176.720661 1172,175.753864 C1172,174.787067 1171.61635,173.859805 1170.93294,173.176124 L1170.93294,173.176124 Z M1169.722,177.116938 L1162.12235,184.718509 C1161.7604,185.080702 1161.2694,185.284193 1160.75741,185.284193 C1160.24543,185.284193 1159.75443,185.080702 1159.39248,184.718509 L1150.28089,175.603626 C1149.91794,175.241549 1149.71363,174.750087 1149.71292,174.237344 L1149.71292,166.635773 C1149.71345,166.123718 1149.91746,165.632875 1150.28001,165.27136 C1150.64256,164.909845 1151.13391,164.707313 1151.64583,164.708371 L1159.24548,164.708371 C1159.757,164.707674 1160.24777,164.910651 1160.60942,165.272492 L1169.718,174.383374 C1170.08016,174.745588 1170.28363,175.236879 1170.28363,175.749156 C1170.28363,176.261432 1170.08016,176.752724 1169.718,177.114938 L1169.722,177.116938 Z M1156.56361,168.124081 C1154.67046,168.124081 1153.13576,169.659166 1153.13576,171.552789 C1153.13576,173.446412 1154.67046,174.981497 1156.56361,174.981497 C1158.45675,174.981497 1159.99145,173.446412 1159.99145,171.552789 C1159.99145,169.659166 1158.45675,168.124081 1156.56361,168.124081 Z M1157.77655,172.76604 C1157.19884,173.346379 1156.2917,173.437617 1155.61005,172.983941 C1154.9284,172.530264 1154.66215,171.658074 1154.97418,170.900909 C1155.2862,170.143745 1156.08957,169.712562 1156.89283,169.871126 C1157.6961,170.02969 1158.27547,170.733823 1158.27653,171.552789 C1158.27711,172.007484 1158.0973,172.443832 1157.77655,172.76604 Z"
              id="路径_1342"></path>
    </g>
</svg>
