<?xml version="1.0" encoding="UTF-8"?>
<svg width="24px" height="24px" viewBox="0 0 24 24" version="1.1" xmlns="http://www.w3.org/2000/svg"
     xmlns:xlink="http://www.w3.org/1999/xlink">
    <g id="信息采集-涉案视图" transform="translate(-1271.000000, -161.000000)">
        <g transform="translate(1271.000000, 161.000000)">
            <path d="M23.7525755,22.544157 L19.6366057,18.4335415 C21.3515931,16.3782337 22.2948362,13.8947368 22.2948362,11.1543265 C22.2948362,8.15700268 21.094345,5.41659233 19.0363601,3.27564674 C14.6631423,-1.09188225 7.63169393,-1.09188225 3.25847606,3.27564674 C1.20049118,5.41659233 0,8.15700268 0,11.1543265 C0,14.1516503 1.20049118,16.8920607 3.25847606,19.0330062 C5.40221031,21.1739518 8.31768889,22.2872435 11.1474181,22.2872435 C13.7198992,22.2872435 16.2923803,21.3452275 18.3503652,19.632471 L22.4663349,23.7430865 C22.6378337,23.9143622 22.8950818,24 23.0665805,24 C23.2380793,24 23.4953274,23.9143622 23.6668261,23.7430865 C24.095573,23.4005352 24.095573,22.8867083 23.7525755,22.544157 Z M11.1474181,20.5744871 C8.66068637,20.5744871 6.25970401,19.632471 4.45896724,17.8340767 C2.65823047,16.0356824 1.7149874,13.6378234 1.7149874,11.1543265 C1.7149874,8.67082962 2.65823047,6.27297056 4.45896724,4.47457627 C6.34545338,2.67618198 8.74643574,1.73416592 11.1474181,1.73416592 C13.5484005,1.73416592 15.9493828,2.67618198 17.835869,4.47457627 C19.6366057,6.27297056 20.5798488,8.67082962 20.5798488,11.1543265 C20.5798488,13.6378234 19.6366057,16.0356824 17.835869,17.8340767 C16.0351322,19.632471 13.6341498,20.5744871 11.1474181,20.5744871 Z"
                  id="形状"></path>
            <path d="M15.1666667,10 L6.83333333,10 C6.33333333,10 6,10.4 6,11 C6,11.6 6.33333333,12 6.83333333,12 L15.1666667,12 C15.6666667,12 16,11.6 16,11 C16,10.4 15.6666667,10 15.1666667,10 Z"
                  id="路径"></path>
        </g>
    </g>
</svg>
